<svg xmlns="http://www.w3.org/2000/svg" width="11" height="20" viewBox="0 0 11 20">
  <g id="_001-facebook-logo" data-name="001-facebook-logo" transform="translate(-22.077)">
    <path id="Path_6887" data-name="Path 6887" d="M32.663,0,30.024,0a4.593,4.593,0,0,0-4.88,4.922V7.191H22.492a.411.411,0,0,0-.415.408v3.288a.411.411,0,0,0,.415.408h2.653v8.3A.411.411,0,0,0,25.56,20h3.461a.411.411,0,0,0,.415-.408V11.3h3.1a.411.411,0,0,0,.415-.408V7.6a.4.4,0,0,0-.121-.288.419.419,0,0,0-.294-.12h-3.1V5.268c0-.925.224-1.394,1.449-1.394h1.777a.411.411,0,0,0,.415-.408V.412A.411.411,0,0,0,32.663,0Z" transform="translate(0)" fill="#8f9cc5"/>
  </g>
</svg>
