<svg xmlns="http://www.w3.org/2000/svg" width="61" height="70" viewBox="0 0 61 70">
  <g id="Group_4523" data-name="Group 4523" transform="translate(-104.363 -95.087)">
    <g id="Group_1159" data-name="Group 1159" transform="translate(104.363 95.087)">
      <path id="Path_1966" data-name="Path 1966" d="M161.187,94.967H127.565v18.991h.326c2.892-3.726,6.456-4.169,10.361-3.891,5.767.341,11.391,3.844,11.768,14.995v22.02l0,.017a.838.838,0,0,1-.839.818H143a.839.839,0,0,1-.843-.818V125.727c0-5.2-1.7-9.085-6.864-9.085-3.758,0-7.731,2.6-7.731,8.077v22.362l0,.017a.836.836,0,0,1-.839.818h-6.174a.836.836,0,0,1-.839-.818l0-.017V94.967H109.018a4.465,4.465,0,0,0-4.655,4.26v61.236a4.667,4.667,0,0,0,4.655,4.5h52.168a4.263,4.263,0,0,0,4.176-4.5V99.227A4.058,4.058,0,0,0,161.187,94.967Zm-7.425,61.064h-37.8v-3.722h37.8Z" transform="translate(-104.363 -94.967)" fill="#fff"/>
    </g>
  </g>
</svg>
