<svg xmlns="http://www.w3.org/2000/svg" width="21" height="20" viewBox="0 0 21 20">
  <g id="_003-linkedin-logo" data-name="003-linkedin-logo" transform="translate(0 -9.558)">
    <path id="LinkedIn" d="M21,21.82v7.738H16.5v-7.22c0-1.814-.651-3.051-2.28-3.051a2.462,2.462,0,0,0-2.309,1.641,3.06,3.06,0,0,0-.149,1.094v7.536h-4.5s.061-12.228,0-13.495h4.5v1.913c-.009.014-.021.03-.03.044h.03v-.044a4.473,4.473,0,0,1,4.057-2.23C18.779,15.746,21,17.675,21,21.82ZM2.548,9.558a2.339,2.339,0,1,0-.06,4.664h.03a2.34,2.34,0,1,0,.03-4.664Zm-2.28,20h4.5V16.063H.267Z" transform="translate(0)" fill="#8f9cc5"/>
  </g>
</svg>
