<svg xmlns="http://www.w3.org/2000/svg" width="28" height="20" viewBox="0 0 28 20">
  <g id="XMLID_822_" transform="translate(0 -45.917)">
    <path id="XMLID_823_" d="M26.909,47.634c-1.011-1.219-2.877-1.717-6.441-1.717H7.532c-3.645,0-5.543.53-6.55,1.828C0,49.011,0,50.876,0,53.457v4.92c0,5,1.165,7.54,7.532,7.54H20.468c3.09,0,4.8-.439,5.911-1.515C27.515,63.3,28,61.5,28,58.377v-4.92C28,50.735,27.924,48.859,26.909,47.634ZM17.976,56.6,12.1,59.712a.892.892,0,0,1-.886-.028.92.92,0,0,1-.435-.784V52.688a.92.92,0,0,1,.434-.783.892.892,0,0,1,.885-.03l5.874,3.1a.923.923,0,0,1,0,1.626Z" fill="#8f9cc5"/>
  </g>
</svg>
